<?xml version="1.0" standalone="no"?>
<!DOCTYPE svg PUBLIC "-//W3C//DTD SVG 20010904//EN"
 "http://www.w3.org/TR/2001/REC-SVG-20010904/DTD/svg10.dtd">
<svg version="1.0" xmlns="http://www.w3.org/2000/svg"
 width="248.000000pt" height="221.000000pt" viewBox="0 0 248.000000 221.000000"
 preserveAspectRatio="xMidYMid meet">

<g transform="translate(0.000000,221.000000) scale(0.100000,-0.100000)"
fill="#000000" stroke="none">
<path d="M0 1105 l0 -1105 1240 0 1240 0 0 1105 0 1105 -1240 0 -1240 0 0
-1105z m1468 617 c18 -23 15 -49 -8 -72 -24 -24 -38 -25 -68 -4 -30 20 -30 68
0 88 25 18 56 13 76 -12z m-154 -68 c10 -4 16 -18 16 -39 0 -46 -9 -65 -30
-65 -22 0 -36 -17 -46 -55 -4 -17 -20 -45 -35 -63 -33 -38 -32 -69 7 -143 21
-40 25 -63 27 -165 4 -127 19 -177 57 -189 23 -7 25 -18 6 -34 -10 -8 -24 -6
-60 9 -41 19 -46 24 -46 53 0 18 -11 50 -25 72 -17 27 -24 55 -25 87 0 32 -5
50 -16 56 -18 10 -64 116 -64 148 0 15 -6 20 -21 20 -32 -1 -35 22 -5 34 14 5
26 17 26 25 0 14 -5 13 -30 -5 -16 -12 -34 -28 -39 -37 -11 -21 -44 -9 -39 14
2 10 11 19 20 21 9 2 52 39 95 83 60 62 87 83 120 92 34 9 42 15 37 29 -12 40
26 69 70 52z m-579 -919 c0 -13 -8 -21 -22 -23 -17 -3 -23 2 -23 16 0 10 3 22
7 26 13 13 38 1 38 -19z m-115 -30 c0 -40 -11 -45 -25 -12 -8 18 -19 23 -62
25 l-53 3 0 -55 c0 -51 2 -56 23 -56 27 0 40 9 55 35 9 17 11 10 11 -40 0 -57
-1 -59 -16 -37 -10 14 -26 22 -44 22 -28 0 -29 -2 -29 -44 0 -45 10 -60 45
-69 11 -2 -16 -5 -60 -5 -57 -1 -74 2 -57 8 21 9 22 15 22 121 0 95 -3 114
-17 125 -15 11 -1 13 95 14 l112 0 0 -35z m800 24 c21 -6 30 -20 30 -46 0 -29
-16 -30 -25 -2 -15 48 -105 51 -105 4 0 -21 11 -30 63 -55 38 -18 69 -40 77
-55 20 -38 3 -76 -44 -99 -34 -17 -45 -18 -83 -7 -25 6 -49 9 -54 6 -5 -4 -9
14 -9 41 l0 47 23 -34 c27 -41 62 -55 100 -40 19 8 27 17 27 36 0 20 -10 30
-52 51 -73 36 -88 52 -88 91 0 49 31 76 83 71 23 -3 49 -6 57 -9z m170 -60 c0
-13 7 -19 23 -20 l22 -2 -23 -4 c-22 -4 -23 -8 -20 -81 3 -76 3 -77 28 -74 24
3 24 2 6 -13 -23 -18 -40 -19 -67 -5 -16 9 -19 22 -19 86 0 55 -4 76 -14 80
-11 4 -6 13 17 34 34 30 47 30 47 -1z m-387 -41 c9 -11 17 -29 17 -39 0 -17
-8 -19 -65 -19 -70 0 -76 -6 -54 -54 15 -31 46 -39 82 -21 20 10 27 11 24 2
-7 -22 -57 -39 -92 -33 -61 12 -95 90 -64 147 25 48 116 58 152 17z m610 13
c6 -6 13 -41 15 -79 3 -37 10 -70 16 -74 8 -6 7 -11 -4 -18 -20 -13 -26 -13
-44 5 -14 14 -18 14 -41 -1 -45 -29 -97 3 -79 50 3 9 28 26 55 38 42 20 49 27
47 48 -4 33 -43 41 -53 11 -3 -12 -15 -21 -26 -21 -27 0 -25 38 4 50 27 12 95
6 110 -9z m151 -11 c2 0 18 7 35 16 30 15 34 15 48 1 22 -21 7 -39 -30 -35
-34 3 -44 -14 -46 -85 -1 -30 3 -39 22 -47 16 -6 5 -9 -43 -8 -36 0 -57 2 -47
5 14 4 17 16 17 73 0 55 -3 71 -17 79 -15 8 -16 10 -3 15 34 11 55 11 58 -1 2
-7 5 -13 6 -13z m-1224 -64 c0 -72 3 -85 18 -89 9 -3 -10 -5 -43 -6 -45 0 -56
2 -42 10 23 14 25 136 2 145 -28 11 -15 24 25 24 l40 0 0 -84z m148 77 c-23
-6 -23 -9 4 -78 l21 -56 25 57 c23 55 23 58 6 71 -16 11 -13 13 25 13 l42 0
-18 -23 c-10 -13 -31 -56 -48 -95 -40 -96 -53 -95 -95 13 -18 47 -40 90 -49
95 -11 7 3 9 44 9 33 -1 52 -3 43 -6z"/>
<path d="M1118 629 c-31 -18 -22 -39 17 -39 36 0 46 15 23 38 -14 14 -18 14
-40 1z"/>
<path d="M1742 544 c-38 -26 -23 -66 18 -44 12 6 20 21 20 35 0 29 -7 31 -38
9z"/>
</g>
</svg>
